P2
80 60
63
14 19 18 18 13 11 14 14 11 14 11 12 11 10 13 14 11 12 10 12 13 12 12 12 11 10 8 10 11 13 15 12 12 12 11 12 15 14 13 11 15 12 12 11 9 13 11 9 11 11 13 17 16 19 14 17 17 19 16 15 15 16 20 23 14 16 16 14 16 16 18 14 16 13 14 14 12 14 14 7 
20 18 19 17 14 13 16 13 11 10 13 10 10 10 11 12 14 14 11 11 11 12 14 13 10 13 12 11 12 11 9 11 10 13 15 13 12 13 14 14 10 12 11 11 13 10 14 12 9 12 13 15 17 18 18 16 17 18 19 15 15 16 19 20 17 16 15 17 16 15 18 18 13 15 12 13 11 14 16 7 
17 17 17 16 15 12 15 12 12 10 15 12 14 15 16 12 17 11 9 11 11 9 12 12 12 14 8 13 14 13 14 15 11 16 12 15 16 17 14 14 17 13 16 16 15 16 19 17 14 15 13 18 14 19 18 15 14 19 17 16 14 18 19 18 16 14 14 15 15 19 18 17 16 15 13 14 13 19 11 10 
18 14 15 16 12 12 15 13 15 11 12 11 11 13 14 15 15 11 11 12 13 11 12 12 11 12 12 9 13 12 13 13 18 19 16 18 15 17 19 16 15 15 13 16 19 21 32 22 19 16 18 17 16 16 17 14 19 17 17 16 16 17 16 19 17 13 13 16 15 13 15 15 14 16 10 14 16 17 15 11 
14 11 11 12 14 13 12 14 12 13 12 9 7 13 13 11 13 12 12 12 10 10 14 15 11 13 14 12 15 14 13 14 15 17 17 19 15 17 18 15 18 18 18 17 20 25 34 25 18 17 17 23 21 16 18 15 17 15 19 16 15 14 18 22 17 15 11 17 17 16 14 15 16 11 12 13 15 15 16 10 
11 9 12 11 8 8 15 10 9 8 7 10 8 7 8 12 10 11 9 9 11 8 12 12 15 15 15 15 14 13 18 17 15 17 19 17 19 20 16 17 16 19 19 18 17 19 23 17 16 14 16 29 20 19 13 16 13 12 16 11 13 13 16 18 14 14 13 16 14 12 14 15 16 15 11 12 12 11 14 10 
10 10 10 10 9 8 12 10 11 7 10 10 10 12 12 15 16 11 15 13 14 14 16 18 18 19 19 15 17 17 19 19 18 18 20 19 19 16 17 17 19 18 18 19 16 19 19 16 16 14 18 25 19 18 17 15 15 17 12 14 14 16 18 20 15 13 13 12 14 15 16 16 15 15 13 13 12 14 10 11 
9 9 10 8 6 11 8 9 7 6 13 12 10 11 15 11 15 15 17 14 15 13 16 17 15 19 17 16 18 19 18 18 19 17 20 16 18 19 20 17 19 18 17 15 17 16 15 16 15 15 16 15 14 18 17 16 13 14 14 16 15 17 15 21 17 17 14 13 14 14 17 17 16 12 13 15 15 15 11 9 
11 10 12 5 7 8 10 10 8 10 13 12 12 12 16 13 16 14 18 17 17 16 19 16 17 19 16 17 17 22 18 16 21 20 21 18 18 19 16 18 21 15 16 14 17 15 17 15 16 16 14 16 16 14 16 15 14 15 15 16 14 16 16 15 14 15 13 15 17 16 18 15 13 14 10 10 9 14 11 10 
13 8 10 10 8 12 13 13 13 12 12 15 14 15 13 14 18 15 16 12 17 15 16 20 15 18 17 17 17 20 19 17 18 18 18 16 17 17 16 16 18 21 17 15 15 16 15 15 15 13 15 15 14 13 11 13 12 16 17 13 11 9 16 16 12 13 13 13 15 16 14 18 13 15 11 12 12 11 11 4 
14 12 13 13 14 14 18 14 16 12 15 14 18 17 14 19 16 15 18 17 17 18 18 18 20 21 18 19 14 20 20 20 19 20 18 20 16 20 19 17 18 18 19 14 17 16 16 14 15 14 15 17 14 13 15 14 14 13 16 15 12 11 14 15 11 12 13 11 11 10 11 15 15 13 11 14 12 12 11 8 
14 12 13 15 13 15 15 15 15 16 16 15 14 18 18 19 19 20 17 19 18 17 18 18 17 16 19 17 17 15 20 21 19 18 22 19 19 20 19 18 16 20 15 19 17 15 14 14 15 15 15 20 17 12 11 13 9 13 13 9 10 10 11 16 11 12 10 12 13 12 12 15 17 16 11 12 11 13 12 6 
16 19 15 15 16 14 17 16 18 17 19 15 19 16 18 20 21 20 16 16 21 19 18 19 19 17 18 20 16 20 21 22 18 19 19 20 18 22 20 20 22 17 18 17 17 15 16 17 16 15 18 14 14 14 12 14 9 14 13 14 12 12 13 16 9 9 12 12 14 12 12 14 18 16 14 10 10 13 9 8 
17 16 19 20 18 14 18 17 20 19 19 16 18 19 19 17 21 21 19 20 19 18 18 19 19 17 17 19 20 22 19 20 21 19 19 20 22 22 21 20 20 21 17 17 18 18 14 16 16 14 17 17 12 13 13 11 10 13 12 15 9 13 13 15 12 10 12 12 15 16 16 15 16 14 14 13 12 12 11 8 
17 19 20 21 16 15 22 22 22 18 18 17 17 19 20 20 21 19 19 20 19 20 20 21 23 20 19 19 19 20 20 18 19 21 22 24 20 23 20 18 19 18 16 20 17 17 15 19 15 14 17 12 13 12 10 9 12 10 15 12 8 12 11 15 10 12 12 10 14 13 17 12 12 15 12 10 11 13 12 3 
19 24 21 18 17 19 23 20 21 16 18 17 16 19 19 19 21 22 16 18 21 21 20 23 23 21 18 19 19 20 20 21 19 19 19 19 20 23 20 20 20 19 18 16 17 19 16 16 21 15 16 11 11 10 10 11 12 12 12 11 5 12 12 11 10 10 9 12 12 15 11 13 11 11 9 12 9 9 9 6 
20 20 22 21 19 16 18 21 17 17 21 20 15 16 17 26 21 19 16 20 17 22 21 20 22 18 21 20 20 18 23 17 19 17 17 19 18 20 17 15 19 23 18 17 16 15 16 18 16 17 13 13 10 10 11 9 7 11 12 11 9 10 10 12 9 8 9 10 9 7 10 9 10 9 9 8 7 8 7 3 
22 18 24 19 18 17 18 21 19 17 18 18 19 18 17 19 21 19 17 19 17 15 18 22 20 19 17 17 19 19 21 18 20 18 18 18 17 19 15 17 17 18 17 17 15 15 14 16 13 14 16 26 12 8 7 7 8 10 8 4 8 8 11 12 9 9 12 10 8 10 9 7 9 8 9 7 5 7 7 3 
19 25 21 19 19 17 20 21 21 20 24 16 16 20 20 19 20 22 19 18 19 22 20 22 19 19 20 23 22 21 23 18 19 20 20 21 19 18 17 17 19 17 18 17 19 15 16 16 16 17 18 19 10 6 8 8 9 8 10 8 6 10 11 16 11 10 11 10 12 12 11 11 7 9 8 10 12 10 11 8 
22 22 21 21 21 20 20 24 19 17 20 19 17 23 23 22 22 19 18 18 19 20 19 22 21 21 18 20 20 19 21 21 20 17 18 18 17 21 20 17 17 18 18 17 18 16 14 17 14 15 15 13 6 3 6 7 6 10 7 8 5 8 11 16 13 14 11 11 11 13 6 6 7 8 10 15 14 17 14 10 
20 21 21 23 21 21 23 24 20 21 19 21 19 23 23 21 22 21 18 20 18 21 19 20 18 20 21 22 19 21 23 20 19 18 18 20 19 22 19 21 18 19 19 17 19 14 15 17 18 17 18 14 10 4 6 0 2 3 0 3 5 9 12 13 16 15 11 14 15 12 11 11 12 10 14 16 15 16 16 7 
19 18 22 21 22 22 23 21 21 20 19 20 21 21 22 18 19 20 18 17 19 22 21 21 22 20 22 20 19 23 21 16 17 18 18 20 20 19 19 18 20 20 15 16 18 16 15 17 18 16 15 15 12 11 8 8 4 2 2 2 4 9 10 16 18 17 11 13 14 12 14 13 12 12 16 16 15 16 14 13 
22 23 26 23 23 19 22 26 22 19 19 25 19 22 21 18 18 21 21 22 23 24 23 21 23 21 21 19 21 21 17 17 17 20 21 16 19 18 17 16 17 21 17 20 18 14 16 16 15 16 17 17 18 13 12 14 10 9 6 8 9 10 15 12 16 16 14 17 16 17 16 14 12 10 14 15 18 19 14 17 
21 23 26 22 23 21 20 22 21 23 21 22 22 18 23 21 20 19 20 20 17 20 21 23 21 22 22 19 20 20 20 21 19 20 17 15 19 16 18 19 17 17 18 18 17 15 18 16 15 14 16 17 12 10 8 12 11 7 7 8 8 9 13 6 17 17 10 11 14 16 15 17 11 14 13 16 13 15 15 14 
23 24 23 24 22 20 22 20 20 19 22 23 21 22 17 19 21 21 21 21 20 18 19 21 22 22 21 19 18 23 16 21 19 16 20 20 21 17 18 18 17 19 19 15 16 17 18 13 16 13 16 13 5 8 7 10 8 7 7 6 8 9 12 7 15 16 15 15 13 14 14 14 15 15 15 18 17 17 12 18 
21 22 23 21 20 20 21 17 21 18 22 21 22 23 23 20 20 21 19 20 20 24 23 24 22 20 21 21 19 21 20 21 20 21 19 20 18 20 19 18 19 20 18 18 18 18 14 16 14 16 16 13 5 3 4 10 11 8 5 8 12 10 11 7 14 15 13 14 19 14 15 14 15 14 15 17 17 15 10 12 
23 23 24 22 22 24 18 19 18 21 19 20 19 21 22 22 18 22 17 16 20 20 20 22 22 20 20 20 21 21 18 20 19 19 19 22 19 19 22 19 17 18 19 15 16 18 15 16 16 19 15 11 4 2 5 10 10 9 10 10 11 10 13 8 12 15 13 13 13 13 16 14 15 16 15 18 18 15 13 9 
21 24 28 21 22 23 22 21 21 19 18 20 18 19 23 22 21 21 20 21 20 20 20 24 22 19 22 21 21 24 22 22 21 19 19 19 21 19 21 21 20 20 19 17 18 19 15 16 17 17 16 12 6 4 4 13 13 10 9 10 13 10 8 6 15 13 15 17 18 15 15 15 14 13 15 18 16 13 13 14 
21 22 29 25 23 23 25 23 19 19 21 20 19 21 23 22 20 19 20 19 18 20 23 24 22 22 21 19 20 20 24 21 21 24 20 21 19 21 19 20 21 21 17 19 19 16 17 13 14 15 15 11 3 3 3 12 10 9 10 14 9 9 8 7 15 15 11 13 18 13 18 14 15 13 16 20 16 15 16 8 
26 22 25 21 24 20 25 22 20 20 19 23 18 22 22 19 22 19 20 21 22 24 18 22 21 24 19 19 17 21 22 20 18 22 20 19 22 21 17 19 19 21 18 16 18 16 16 16 17 16 18 10 4 1 3 8 10 10 8 8 9 11 10 5 13 16 15 13 18 15 14 14 15 14 18 18 15 16 19 10 
22 24 26 21 21 21 23 21 18 21 19 21 22 21 24 20 24 19 19 23 21 21 23 24 23 22 21 23 23 24 23 21 23 22 23 20 22 22 23 21 24 19 17 18 16 16 15 16 13 15 17 10 5 3 3 9 9 6 6 12 9 11 10 9 17 16 13 13 17 18 16 14 12 13 17 17 13 14 15 11 
24 23 24 23 21 19 24 21 22 22 20 23 23 21 22 21 20 21 22 22 22 21 24 23 27 20 22 26 21 22 19 24 21 19 20 21 22 22 22 20 19 19 20 17 19 17 18 17 18 16 15 11 10 12 12 11 11 6 7 11 11 11 10 7 15 14 15 12 15 18 20 16 15 14 16 19 14 17 15 10 
25 25 24 23 21 22 20 22 20 22 21 25 22 22 24 22 24 24 24 21 25 25 25 25 24 23 27 24 22 25 22 25 22 22 23 21 19 23 21 21 19 21 18 18 14 16 14 14 17 21 14 11 11 12 15 6 3 3 7 9 10 12 9 7 15 16 14 13 17 15 16 15 15 15 17 18 18 18 16 14 
24 25 28 22 22 24 25 25 21 22 22 21 21 25 23 24 28 23 20 25 24 25 26 27 26 24 23 22 22 22 23 20 20 22 21 19 20 22 22 23 25 18 17 19 17 20 17 15 17 20 18 18 14 19 13 9 6 5 7 10 11 12 11 7 15 13 13 17 17 17 18 14 13 17 19 18 16 20 19 14 
26 25 28 25 18 21 25 22 21 20 21 22 24 23 23 23 25 25 22 20 26 24 27 22 23 23 21 23 24 22 18 21 22 21 19 21 19 22 20 20 21 20 19 19 19 18 19 17 19 15 17 17 13 14 15 14 8 7 8 12 9 11 8 7 16 15 14 17 19 16 17 16 16 18 20 15 18 16 17 15 
23 23 28 28 23 22 25 25 23 20 24 23 24 22 26 24 27 26 22 26 26 25 23 23 21 22 23 23 19 24 20 21 21 19 20 19 23 21 20 19 20 20 18 21 18 20 16 15 19 19 19 17 14 15 15 11 7 7 9 10 10 12 9 8 15 15 16 17 20 18 16 17 15 19 16 20 19 21 18 16 
24 26 26 24 24 20 24 27 25 22 21 22 21 23 25 25 25 27 23 28 26 23 21 23 22 21 24 24 21 23 24 24 27 25 22 22 23 24 24 20 21 18 21 21 20 20 20 20 18 21 20 21 21 17 18 14 11 10 9 11 10 10 7 9 13 18 16 17 19 16 18 17 19 18 19 15 21 18 17 16 
24 24 26 25 23 23 24 23 21 24 20 24 25 24 23 24 26 25 26 27 27 25 25 22 25 24 25 27 25 27 26 27 26 27 27 25 25 24 23 21 21 21 21 19 20 21 20 18 19 20 16 20 18 19 19 13 12 11 12 8 11 12 7 8 18 22 19 18 20 20 18 16 16 17 18 21 18 18 20 15 
24 24 26 27 23 22 27 26 20 23 24 27 25 25 27 28 28 30 29 30 30 31 28 26 28 27 27 30 30 28 31 30 27 29 28 28 27 28 24 24 21 21 20 18 21 20 21 21 21 20 21 22 25 22 25 23 21 14 10 11 10 14 9 11 17 18 16 18 21 20 19 17 17 22 21 16 17 20 19 10 
29 24 24 23 22 23 28 29 24 25 30 36 38 38 44 45 40 40 39 38 37 37 35 34 35 34 33 35 34 36 33 35 36 35 33 31 30 32 31 31 28 27 26 24 26 27 26 26 23 24 26 29 28 27 25 24 23 16 12 14 12 12 8 14 16 17 18 17 19 16 21 20 18 19 18 19 19 18 19 12 
23 23 27 24 22 26 28 30 34 38 42 46 46 45 46 49 48 42 43 41 44 40 41 41 42 40 39 44 43 44 43 43 43 47 45 43 44 45 42 44 43 42 44 44 43 44 43 46 44 44 47 48 54 54 46 43 35 21 13 13 12 11 12 13 16 16 14 20 19 18 18 18 17 19 20 23 20 18 17 16 
23 25 27 27 27 25 32 42 44 49 44 46 46 46 48 49 50 43 43 44 41 44 46 39 44 41 43 44 42 42 42 45 47 46 47 47 46 47 45 47 47 44 44 46 47 47 50 49 48 50 48 55 60 62 61 55 54 49 36 21 15 14 14 14 15 18 17 17 17 16 16 20 20 17 22 20 17 20 15 13 
27 26 27 27 22 30 40 46 41 46 44 47 47 46 50 50 48 47 43 44 39 42 42 41 41 43 41 42 44 44 45 44 46 47 48 45 49 47 48 48 45 47 45 49 48 49 49 47 48 50 53 58 63 60 62 58 58 56 53 40 23 16 13 14 18 16 22 16 22 19 20 17 19 17 17 20 18 19 18 11 
28 28 29 28 32 38 43 45 50 43 43 46 45 47 46 48 48 46 44 43 43 44 44 42 42 42 44 44 43 45 46 46 46 47 45 44 43 47 46 46 45 44 48 46 44 46 47 46 51 50 54 58 61 61 59 62 56 59 57 54 44 26 17 17 19 17 17 15 20 18 20 19 17 17 15 17 17 16 18 9 
27 31 32 36 36 41 44 47 47 43 43 44 40 48 47 48 43 40 41 40 42 45 41 43 42 43 43 43 42 44 46 43 45 46 45 44 45 46 43 47 46 48 48 47 49 49 48 51 49 47 52 56 61 59 59 57 57 59 58 55 52 43 21 20 17 18 18 18 16 20 18 18 17 18 13 15 15 16 12 13 
30 34 34 33 34 43 45 46 46 43 41 43 42 41 44 44 43 45 42 41 41 41 42 41 38 43 40 43 42 44 42 45 43 45 44 46 47 45 45 45 45 44 44 47 44 49 50 48 47 49 51 54 58 55 56 54 56 53 58 55 51 48 33 24 19 21 17 15 17 21 19 19 17 16 11 8 10 11 13 8 
31 38 34 38 43 42 39 45 41 40 43 41 37 39 38 42 47 43 42 40 40 41 43 39 43 42 41 40 43 42 42 44 43 41 44 47 45 42 45 43 46 46 44 46 48 45 46 47 48 48 47 51 55 57 59 53 55 58 56 53 56 50 45 27 20 17 18 19 22 20 19 19 16 16 12 12 11 13 13 10 
34 37 36 39 42 46 45 46 42 42 45 42 40 36 36 38 38 42 42 44 40 44 41 43 42 41 41 43 43 40 41 44 41 40 45 42 44 45 47 45 50 48 44 45 44 48 45 46 48 45 49 51 52 55 56 56 54 56 55 54 57 53 52 37 20 20 22 19 22 16 21 20 20 17 16 16 15 13 12 14 
37 37 36 43 44 44 41 46 42 43 42 39 33 36 32 33 38 44 40 40 42 42 41 43 42 39 42 44 40 41 42 34 35 34 35 40 42 47 47 47 49 47 45 44 46 48 46 47 49 44 43 40 41 47 53 50 55 50 56 55 52 53 51 46 22 21 20 22 25 20 22 22 20 20 19 15 16 17 16 10 
37 36 42 41 42 43 44 45 41 45 42 39 33 33 32 36 37 38 41 46 44 42 43 44 40 42 44 42 41 40 34 32 33 29 31 36 42 44 45 44 45 43 45 46 47 46 48 48 44 41 32 32 31 33 42 49 51 53 56 56 55 53 52 51 27 23 24 21 25 22 24 22 22 21 23 20 18 18 20 13 
39 38 41 41 41 43 42 45 42 44 42 36 35 34 32 34 35 35 38 43 41 40 43 42 40 43 42 43 43 39 35 33 29 32 32 31 37 47 44 46 47 45 45 45 46 47 46 46 42 31 32 32 30 29 35 44 53 56 56 53 53 53 55 51 30 27 22 24 24 23 23 23 24 23 17 22 21 23 23 21 
36 37 40 46 45 45 45 43 42 45 41 35 35 33 35 33 36 34 41 42 45 42 42 44 45 45 43 43 43 42 33 29 33 31 32 35 37 43 45 45 45 44 46 46 45 50 47 43 40 31 31 33 36 28 30 44 53 55 55 54 53 50 52 50 32 27 26 26 26 23 28 25 24 24 23 20 24 26 23 23 
37 38 40 42 43 45 46 40 45 43 38 37 33 32 30 32 37 38 40 40 36 42 41 41 43 41 43 47 41 40 33 30 32 30 31 32 38 45 45 41 44 43 42 43 43 44 45 46 40 29 31 33 36 35 31 45 52 53 55 52 54 52 53 50 30 26 25 23 30 25 22 27 25 28 27 22 21 26 26 20 
36 36 41 42 45 42 44 45 45 43 42 41 39 36 37 33 40 41 43 39 42 43 47 42 44 44 39 42 41 42 38 29 32 31 34 36 43 45 43 43 48 43 46 46 43 45 45 46 41 31 31 36 37 38 41 50 52 53 55 53 51 52 55 49 30 26 23 24 25 28 26 30 29 26 26 26 26 27 26 24 
40 38 37 42 43 45 43 43 41 42 41 41 39 41 39 41 39 39 43 40 40 41 43 45 43 42 43 41 41 45 44 39 36 34 35 40 45 44 48 45 45 47 43 44 46 43 45 47 44 40 34 36 38 42 51 50 52 53 55 53 51 52 54 50 29 27 27 26 29 24 27 27 29 30 26 28 27 25 28 28 
37 41 39 43 48 45 44 42 39 43 42 41 42 42 45 39 45 43 47 42 40 42 43 45 43 47 41 45 42 44 47 43 41 41 43 45 44 47 44 44 45 47 48 44 45 48 47 47 43 43 46 46 51 53 55 50 52 55 54 54 53 54 53 48 32 30 25 29 31 28 30 32 30 29 26 33 29 28 28 24 
43 42 44 46 46 44 45 46 45 40 39 42 40 43 43 42 43 40 39 42 41 44 44 44 42 43 43 45 41 43 46 43 48 44 46 45 47 45 46 42 47 46 45 46 45 46 45 48 47 45 45 50 54 55 55 53 56 57 55 55 51 52 53 46 34 29 30 28 30 30 33 31 30 31 29 30 33 34 37 31 
44 41 48 48 45 44 47 45 44 43 41 42 41 45 41 42 45 44 40 42 45 47 43 43 45 44 43 43 41 46 43 42 40 43 42 43 45 43 41 45 45 46 46 47 47 44 45 46 46 46 49 51 55 56 54 52 54 53 57 53 52 50 52 50 33 32 31 32 33 34 34 32 38 34 35 34 33 38 40 37 
46 47 52 48 51 48 47 45 49 46 43 44 45 43 42 42 46 43 46 45 47 45 51 50 46 47 46 44 46 46 45 43 45 42 44 45 42 45 45 45 46 43 43 48 45 48 45 45 43 47 49 52 52 52 53 56 55 55 58 57 54 55 55 55 39 41 38 39 40 45 44 45 45 43 45 44 48 47 50 43 
47 49 50 46 46 45 48 45 47 48 44 46 40 43 40 45 45 41 45 45 49 50 54 50 51 48 47 50 47 48 44 42 44 44 42 44 43 41 44 46 47 44 43 47 42 47 44 44 43 47 43 47 51 54 53 55 58 55 57 54 60 61 56 59 49 48 44 42 44 46 49 50 50 51 53 51 51 54 45 44 


